# xmcd
#
# Track frame offsets:
#	150
#	22805
#	41255
#	60314
#	78242
#	97167
#	118238
#	138198
#	155258
#	174798
#	192299
#	206919
#	234588
#	259226
#	273830
#	289524
#	303397
#	320965
#
# Disc length: 4478 seconds
#
# Revision: 0
# Processed by: cddbd v1.5.1PL0 Copyright (c) Steve Scherf et al.
# Submitted via: audiograbber 1.83.01
#
DISCID=f3117c12
DTITLE=то дглотийо тяацоуди еимаи еды мо2 - Cd1
DYEAR=1900
DGENRE=
TTITLE0=ITIA
TTITLE1=йобы лиа йкаяа
TTITLE2=аяавыба
TTITLE3=тоуто то йакойаияайи
TTITLE4=тоутг цгс йуяа циыяцаима
TTITLE5=лауяидеяоука
TTITLE6=памы се тяийояжо боумо
TTITLE7=лг ле йоитас поу цеяаса
TTITLE8=басы басикы
TTITLE9=пяытолациа
TTITLE10=паяе ле йаи лема лпаялпа
TTITLE11=о агтос
TTITLE12=паидиа л' циати 'сте амакаца
TTITLE13=стгс аяйадиас том пкатамо
TTITLE14=поукайи немо
TTITLE15=ацйимаяа
TTITLE16=цяиба се хекеи о басикиас
TTITLE17=гкиос
EXTD=
EXTT0=
EXTT1=
EXTT2=
EXTT3=
EXTT4=
EXTT5=
EXTT6=
EXTT7=
EXTT8=
EXTT9=
EXTT10=
EXTT11=
EXTT12=
EXTT13=
EXTT14=
EXTT15=
EXTT16=
EXTT17=
PLAYORDER=
